<svg height="316.099505" viewBox="0 0 986.19 985.48" width="316.356079" xmlns="http://www.w3.org/2000/svg"><g transform="translate(-6.18 -6.12)"><path d="m298.47 6.17q201.7-.13 403.41 0 3.5 90.56 6.93 181.12.13 3.8.31 7.6c23.63.09 47.27-.08 70.9.08 18.59.63 35.07 16.58 36.35 35.13.24 8 .78 16.3-2.27 23.87a39.1 39.1 0 0 1 -24.9 23.47c-5.86 1.95-12.11 1.76-18.19 1.72q-29.34 0-58.66 0 .14 4.28.31 8.56c0 1.39.09 2.79.15 4.19-2.82-.48-5.67-.85-8.52-1.06q-5.16-137-10.46-274.07h-387.28q-5.22 137-10.47 274.06c-2.74.2-5.46.55-8.18.89-.15-4.19-.1-8.39.12-12.57-22.32-.05-44.65 0-67 0-18.64-.15-35.53-15.66-37.33-34.19-.5-9.31-.92-19.17 3.4-27.74a39.07 39.07 0 0 1 26.58-21.39c5.33-1.23 10.84-.86 16.26-.89q30.64 0 61.28 0 .17-3.81.32-7.62 3.47-90.62 6.94-181.16z" fill="#232323"/><path d="m481.8 283.89a131.94 131.94 0 0 1 72.16 7c4.74 1.77 8.95 5.16 14 6q62.53 0 125.08 0c15.49-.65 31.62 2.5 44.5 11.49a48.71 48.71 0 0 1 19.46 28.62c2.83 13.33 6.24 26.52 9.32 39.8 14.28 3.44 29.09 9.46 38 21.76 4.65 6 5.9 13.64 8.47 20.61q19.28 56.31 38.52 112.63a111.13 111.13 0 0 1 4.37 44.35c-1.64 14.69-8 29.31-19.64 38.8-14.15 11.75-33.06 15.53-51 16.14-17.66.3-35.33 0-53 .13h-504.04c-19.41.29-39.94-1-57-11.25-13.16-7.63-22.24-21.22-25.37-36-4.28-19.93-1.41-40.93 5.64-59.89 13.44-39.48 27.13-78.89 40.39-118.43 7.14-16.75 25.21-24.95 41.94-28.85 3-13.05 6.4-26 9.17-39.14a51.42 51.42 0 0 1 6.77-16.07c11.36-17.54 33.31-25.09 53.44-24.76q70 0 140.07 0c5.08-.65 9.3-4.11 14-5.91 8.08-2.85 16.23-5.59 24.7-7.07m-47.09 32.85a116 116 0 0 0 -41.12 62.68q18.23.21 36.45 0c18.13-.1 36.27-.06 54.41 0 7.11-12.16 14.1-24.38 21.15-36.57q10.6 18.24 21.12 36.54c18.17 0 36.34-.06 54.51 0 12.14.18 24.28.05 36.41.07a115.52 115.52 0 0 0 -114.6-87 115 115 0 0 0 -68.33 24.24m-139.49-2.36q-1.29 32.54-2.49 65.08h88.23a128.87 128.87 0 0 1 47.76-72.14q-52.82 0-105.64 0a64.09 64.09 0 0 0 -27.86 7.05m287.41-7.05a129.11 129.11 0 0 1 47.75 72.12h77.35c-.81-22.75-1.73-45.49-2.59-68.23a68.6 68.6 0 0 0 -26.1-3.92h-96.41m131.16 7.94c.75 21.4 1.63 42.79 2.43 64.18h19.41c.2-9.81.24-19.62.3-29.44-.94-14.32-9.68-27.69-22.14-34.75m-442.38 39.86c.06 8.15-.06 16.3.07 24.45h12.78c.7-19.73 1.56-39.45 2.21-59.18-9.77 8.61-15.87 21.65-15.06 34.76m222.52 24.47h23.43c-3.79-6.85-7.81-13.56-11.67-20.36q-5.94 10.15-11.76 20.37m-244.07 29.09c-14.35 3.36-29.35 9.78-37.68 22.58-4.64 6.82-4.42 15.38-3.82 23.25 1.69 10.5 9.92 18.57 18.69 23.77 16 9.41 35.14 12.35 53.5 11.39 4.53-7.15 11.38-12.27 18.38-16.8 3.87-1.52 7.51-3.61 11.46-5-10.27 4.74-20.93 10.75-26.26 21.21-3.41 6.13-3 13.33-2.7 20.09.49 5.61 3.36 10.68 6.82 15-21.08-3.78-43.67-2.37-63.21 6.86-10.65 5.17-21.12 13.84-23.26 26.1-.66 7.64-1 16 3.34 22.7 7 11.42 19.62 17.93 32 21.81a105.44 105.44 0 0 0 65.61-1.91c11.15-4.32 22.36-11.2 27.76-22.31 2.79-5.38 2.43-11.56 2.32-17.42a26.61 26.61 0 0 0 -5.7-15.08c-6.75-8.87-17-14.11-27.27-17.82a66.49 66.49 0 0 1 29.21 16.98 108.24 108.24 0 0 0 28.65.94 59.8 59.8 0 0 1 27.49-16.89c-11 4-22 10.63-27.68 21.27-3.56 6.24-3.07 13.66-2.75 20.58 1.3 10.35 9.18 18.45 17.68 23.76 16 9.78 35.21 12.92 53.69 12.07 16-.91 32.27-4.94 45.4-14.39 7.24-5.29 13.61-13 14.35-22.27.21-6.52.64-13.45-2.62-19.38-5.52-10.85-16.63-17.19-27.46-21.72a65.12 65.12 0 0 1 25.25 15.03c1 1.21 2.66 1.25 4.1 1.5a107.83 107.83 0 0 0 25.64.42 59.82 59.82 0 0 1 27.42-16.92c-12.83 4.69-26.22 13.23-30 27.2-1.34 8.62-1.53 18.31 3.71 25.79 7.93 11.66 21.47 18 34.71 21.56 20.59 5.18 42.9 4.47 62.82-3.12 11.09-4.41 22.23-11.41 27.39-22.62 2.57-5.23 2.13-11.16 2.07-16.81a26.72 26.72 0 0 0 -5.66-15.09c-6.07-8.06-15.16-13.09-24.34-16.83a66.15 66.15 0 0 1 26.14 15.79 98.07 98.07 0 0 0 28.62 1.07 61 61 0 0 1 27.5-17c-13 4.88-26.78 13.61-30.14 28-.94 8-1.33 16.72 3.13 23.79 6.71 11 18.72 17.43 30.62 21.36a106.21 106.21 0 0 0 63.16-.08c11.94-4 24-10.52 30.6-21.68 4.16-6.73 3.71-15 3.08-22.51-2.05-11.25-11.25-19.52-20.9-24.69-17.66-9.28-38.33-11.32-57.94-9.25 3.64-4.87 6.23-10.76 6-16.94.3-6.27-.14-12.83-3.56-18.28-6.17-10.44-17.31-16.67-28.41-20.66 12.64 3.68 24.66 11 32.32 21.87 20.22 2.33 41.63-.11 59.59-10.19 9-5.18 17.55-13.13 19.54-23.77.75-8 1-16.65-3.6-23.59-7.35-11.63-20.48-18-33.3-21.66a109.35 109.35 0 0 0 -62 1.57c-11.76 4.12-23.66 11-29.53 22.43-3.2 6-2.76 12.9-2.52 19.43.19 3.5 1.6 6.75 3 9.89a117.83 117.83 0 0 0 -27.45-.89c2.48-5 2.91-10.65 2.65-16.17.37-7.09-2.66-14-7.31-19.2-9.53-10.63-23.51-16-37.22-18.78-19.35-3.57-39.86-2.53-58.3 4.63-10.79 4.43-21.63 11.43-26.48 22.43-2.52 5.32-2 11.32-2 17 0 3.87 1.48 7.5 3.08 11a117.84 117.84 0 0 0 -27.45-.87c3.27-6.52 3-14 2.41-21.07-1.59-10-9.07-17.77-17.32-22.93-14.55-9-32-12.15-48.92-12.15-17.43.25-35.52 3.84-50 14-8.43 5.87-15.44 15.3-14.89 26-.35 5.85.29 11.83 3.18 17a116.76 116.76 0 0 0 -27.45-.88c3.27-6.52 3-14 2.41-21.06-2.11-12.55-12.93-21.33-23.82-26.52-20.33-9.28-43.84-10.52-65.57-5.92z" fill="#232323"/><path d="m207.94 289c20-.1 40.08 0 60.12 0a52.14 52.14 0 0 1 10 .61l-1.92.32c-6.69-.78-13.43-.28-20.14-.41-7.64.11-15.29-.23-22.92.19-18.5 1.6-36.87 9.07-49.94 22.48-10.38 10.52-16.87 24.41-19.84 38.78-3.09 17.35-7 34.54-10.45 51.81-.61 2.64-.82 5.43-2 7.92-17.22 5-34.43 13.12-45.64 27.62-6.43 8-10.1 17.76-12.23 27.7q-24.08 81.9-48.33 163.75c-2.6 9-5.62 17.94-7.31 27.19-4.14 21.54-5.52 43.87-1.73 65.58 2.9 16.46 9.39 32.71 20.67 45.28 10.66 12 25.34 20 40.78 24.06a139.9 139.9 0 0 0 35 4.37h735.94c19.12-.18 38.73-3.29 55.67-12.59a75.48 75.48 0 0 0 30.7-31.23c9-16.94 12.05-36.39 12.22-55.39a208.9 208.9 0 0 0 -4.56-43c-1.64-7.94-4.24-15.63-6.47-23.41q-24.37-82.67-48.78-165.29c-2.54-12.8-8.66-25-18.31-33.88-10.51-10-24-16.26-37.86-20.16-2.23-.12-2.16-2.65-2.62-4.25-3.27-16.66-7-33.24-10.17-49.93-2.36-15.85-8.48-31.51-19.5-43.37-11.53-12.65-27.77-20.34-44.51-23.16-9.19-1.68-18.57-.86-27.85-1.05-7.37.16-14.76-.4-22.11.41l-1.93-.32a54.51 54.51 0 0 1 7-.63c21 .12 42.1 0 63.15.07a79.61 79.61 0 0 1 32.77 22.16c8.64 9.86 14.4 22 17.55 34.7 3.89 20 8.15 40 12.15 59.95 16 5 31.75 12.81 43 25.6 8.14 9 13.3 20.43 15.71 32.28q24.08 82 48.35 163.85c2.89 10 6.26 20 8 30.31 4.41 23.87 5.49 48.74-.06 72.52-4.28 18.36-13.45 36-27.87 48.39-14.9 13.09-34.36 19.86-53.81 22.31-12.26 1.72-24.65 1.2-37 1.28h-715.86c-21.27.22-43.17-3.06-62-13.35a82.28 82.28 0 0 1 -34-35c-9.48-18.45-12.54-39.51-12.35-60.06a203.61 203.61 0 0 1 9.71-59.43q25.18-85.38 50.41-170.76a67.83 67.83 0 0 1 19.61-36.35c10.85-10.47 24.78-17.08 39-21.52 3.23-16.26 6.79-32.46 10-48.73 2.29-16 8-31.79 18.39-44.32 8.89-11.01 21.02-19.01 34.17-23.9z" fill="#232323"/><path d="m380.81 467.07c12.57 3.76 24.59 11 32.21 21.88a120.35 120.35 0 0 0 20.53.64c4.5-7 11.12-12.26 18.17-16.53 3.75-1.86 7.54-3.67 11.45-5.19-10.12 4.85-20.76 10.74-26 21.18-3.43 6.11-3 13.32-2.72 20.07.51 5.62 3.37 10.69 6.83 15a116.5 116.5 0 0 0 -34.6-1.12c3-4.08 5.41-8.78 5.87-13.89.28-6.72.69-13.88-2.69-20-5.86-11.22-17.55-17.84-29.05-22.04z" fill="#232323"/><path d="m533.79 467.05c12.6 3.75 24.63 11 32.28 21.9a120.35 120.35 0 0 0 20.53.64c4.47-7 11.08-12.24 18.1-16.5 3.77-1.86 7.57-3.7 11.5-5.21-9.11 4.41-18.53 9.42-24.25 18.13-3.91 5.47-5.08 12.31-4.64 18.92-.47 7.06 2.5 13.86 7 19.2a117.39 117.39 0 0 0 -34.58-1.13c3-4.08 5.4-8.75 5.85-13.85.3-6.75.69-14-2.73-20.06-5.85-11.25-17.57-17.84-29.06-22.04z" fill="#232323"/><path d="m296.08 290.81q5.16-137 10.47-274.06h387.28q5.19 137 10.46 274.07c-30.1-.44-60.21-.07-90.32-.19-20 .18-40-.36-60 .28a131.94 131.94 0 0 0 -72.16-7c-8.47 1.48-16.62 4.22-24.7 7.07-16.68-.75-33.4-.13-50.1-.33-37.01.1-73.96-.26-110.93.16z" fill="#fff"/><path d="m278 289.59c3.17-.59 6.27-1.54 9.49-1.91-.16 1.38-.3 2.77-.42 4.16a82.59 82.59 0 0 0 -22.72 7.63 54.75 54.75 0 0 0 -25.63 27.24c-3 6.75-3.94 14.15-5.74 21.27-2 8-3.79 16-5.79 24a88.38 88.38 0 0 0 -22.15 9.16c-11 6.42-19.76 16.95-22.7 29.48-11.42 34-23.17 67.83-34.72 101.76-3.54 10.75-7.91 21.32-9.61 32.58-3.42 20-2.56 42 8.21 59.86 8.72 14.72 24.16 24.37 40.48 28.58 18.62 5.26 38.11 3.77 57.21 4h538.09c18.78-.24 38.34-3.54 54.2-14.2a60.79 60.79 0 0 0 25-36.19c4.53-18.36 2.82-37.84-2.41-55.86-13.59-40.22-27.58-80.32-41.1-120.56-3-12.52-11.74-23-22.72-29.45-6.82-4.37-14.63-6.63-22.13-9.42q-4.59-17.91-8.53-36a54.73 54.73 0 0 0 -14.31-25.72c-9.95-10-23.49-15.66-37.21-18.1-.06-1.4-.11-2.8-.15-4.19 3.14.42 6.18 1.32 9.29 1.9l1.93.32c2.73.71 5.4 1.63 8.11 2.4 13.42 5.19 25.74 14.35 32.42 27.33 5 8.76 6 18.89 8.51 28.48 1.74 7.3 3.54 14.58 5.21 21.9 15 4.25 30.19 11.39 39.21 24.62 5 6.79 6.44 15.22 9.3 23q17.23 50.21 34.38 100.47c2.67 8 5.8 15.92 7.38 24.26 3.67 18.22 4.06 37.73-2.69 55.3a61.44 61.44 0 0 1 -28.05 31.87c-15.64 8.64-33.93 11.19-51.64 11.32h-565c-19.75.35-40.33-1.45-58-10.93a61.58 61.58 0 0 1 -30.05-36c-6.21-19.77-4.58-41.27 1-61 14.7-43.57 29.9-87 44.48-130.58 7.38-17.74 25.7-27.59 43.4-32.34 3.17-13.03 6.26-26.03 9.23-39.12 4.82-18.34 19.87-32.55 37.48-38.74 2.52-.77 5-1.6 7.58-2.26z" fill="#fff"/><path d="m295.17 314.3a64.09 64.09 0 0 1 27.83-7.05q52.82 0 105.64 0a128.87 128.87 0 0 0 -47.76 72.14h-88.2q1.2-32.54 2.49-65.09z" fill="#fff"/><path d="m582.58 307.25h96.42a68.6 68.6 0 0 1 26.1 3.92c.86 22.74 1.78 45.48 2.59 68.23-25.78 0-51.57 0-77.35 0a129.11 129.11 0 0 0 -47.76-72.15z" fill="#fff"/><path d="m454.51 345.5a80.71 80.71 0 0 1 102-.15 82.42 82.42 0 0 1 24.69 34.07c-18.17-.1-36.34 0-54.51 0q-10.56-18.27-21.12-36.54c-7.05 12.19-14 24.41-21.15 36.57-18.14 0-36.28-.08-54.41 0a81.46 81.46 0 0 1 24.5-33.95z" fill="#fff"/><path d="m883.26 668.29c10.72-15.12 15.7-33.46 18.12-51.62 2.28 20.33 2.12 41.73-5.88 60.89-5.07 12.29-14.78 22.92-27.41 27.57-12.42 5-26 3.7-39.1 3.87q-337.48 0-675 0c-14.47.1-29.6-4.6-39.48-15.61-11.92-13.08-16-31.25-17-48.45a143.92 143.92 0 0 1 1.2-28c2.31 18.79 7.77 37.76 19.26 53.09 9 12.08 22.83 21 38 22.34h678.03c5.65-.11 11.44.56 16.95-1.13 13.16-3.24 24.56-11.92 32.31-22.95z" fill="#fff"/><path d="m162 219c5.24-19 24.31-32.7 44-31.79h85.56q-.15 3.81-.32 7.62-30.64 0-61.28 0c-5.42 0-10.93-.34-16.26.89a39.07 39.07 0 0 0 -26.58 21.39c-4.32 8.57-3.9 18.43-3.4 27.74 1.8 18.53 18.69 34 37.33 34.19 22.32.08 44.65 0 67 0-.22 4.18-.27 8.38-.12 12.57 2.72-.34 5.44-.69 8.18-.89 37-.42 73.95-.06 110.92-.18 16.7.2 33.42-.42 50.1.33-4.74 1.8-9 5.26-14 5.91q-70 0-140.07 0c-20.13-.33-42.08 7.22-53.44 24.76a51.42 51.42 0 0 0 -6.77 16.07c-2.77 13.11-6.15 26.09-9.17 39.14-16.73 3.9-34.8 12.1-41.94 28.85-13.26 39.54-26.95 78.95-40.39 118.43-7.05 19-9.92 40-5.64 59.89 3.13 14.78 12.21 28.37 25.37 36 17.07 10.2 37.6 11.54 57 11.25h504c17.66-.08 35.33.17 53-.13 17.94-.61 36.85-4.39 51-16.14 11.62-9.49 18-24.11 19.64-38.8a111.13 111.13 0 0 0 -4.37-44.35q-19.23-56.33-38.52-112.63c-2.57-7-3.82-14.6-8.47-20.61-8.88-12.3-23.69-18.32-38-21.76-3.08-13.28-6.49-26.47-9.32-39.8a48.71 48.71 0 0 0 -19.51-28.66c-12.88-9-29-12.14-44.5-11.49q-62.53 0-125.08 0c-5-.8-9.24-4.19-14-6 20-.64 40-.1 60-.28 30.11.12 60.22-.25 90.32.19 2.85.21 5.7.58 8.52 1.06 13.74 2.55 27.28 8.23 37.21 18.23a54.73 54.73 0 0 1 14.21 25.71q4 18.06 8.53 36c7.5 2.79 15.31 5.05 22.13 9.42 11 6.41 19.77 16.93 22.72 29.45 13.52 40.24 27.51 80.34 41.1 120.56 5.23 18 6.94 37.5 2.41 55.86a60.79 60.79 0 0 1 -25 36.19c-15.86 10.66-35.42 14-54.2 14.2h-537.9c-19.1-.21-38.59 1.28-57.21-4-16.32-4.21-31.76-13.86-40.48-28.58-10.82-17.81-11.68-39.81-8.26-59.81 1.7-11.26 6.07-21.83 9.61-32.58 11.55-33.93 23.3-67.79 34.72-101.76 2.94-12.53 11.71-23.06 22.7-29.48a88.38 88.38 0 0 1 22.15-9.18c2-8 3.84-16 5.79-24 1.8-7.12 2.7-14.52 5.74-21.27a54.75 54.75 0 0 1 25.63-27.24 82.59 82.59 0 0 1 22.72-7.63c.12-1.39.26-2.78.42-4.16-3.22.37-6.32 1.32-9.49 1.91a52.14 52.14 0 0 0 -10-.61c-20 .08-40.08-.05-60.12 0-12.31.57-24.9-3.51-33.83-12.15a44.33 44.33 0 0 1 -13.85-32.85c.18-8.31-.74-16.88 1.76-25z" fill="#9e9e9e"/><path d="m708.81 187.26c29.33 0 58.66-.08 88 0 18.08.26 35.06 12.91 40.61 30.09 3.17 8.84 2.2 18.36 2.32 27.56a44.34 44.34 0 0 1 -18.18 35.51c-8.39 6.32-19 8.94-29.45 8.57-21.05-.1-42.1.05-63.15-.07a54.51 54.51 0 0 0 -7 .63c-3.11-.58-6.15-1.48-9.29-1.9q-.18-4.29-.31-8.56 29.32 0 58.66 0c6.08 0 12.33.23 18.19-1.72a39.1 39.1 0 0 0 24.9-23.47c3-7.57 2.51-15.89 2.27-23.87-1.28-18.55-17.76-34.5-36.35-35.13-23.63-.16-47.27 0-70.9-.08q-.19-3.82-.32-7.56z" fill="#9e9e9e"/><path d="m434.71 316.74a115.71 115.71 0 0 1 152.29 9.26 116.2 116.2 0 0 1 30.62 53.54c-12.13 0-24.27.11-36.41-.07a82.42 82.42 0 0 0 -24.69-34.07 80.85 80.85 0 0 0 -126.52 34.03q-18.23.19-36.45 0a116 116 0 0 1 41.16-62.69z" fill="#9e9e9e"/><path d="m713.74 315.19c12.46 7.06 21.2 20.43 22.14 34.75-.06 9.82-.1 19.63-.3 29.44-6.48 0-13 0-19.41 0-.8-21.38-1.68-42.79-2.43-64.19z" fill="#9e9e9e"/><path d="m271.36 355c-.81-13.11 5.29-26.15 15.06-34.76-.65 19.73-1.51 39.45-2.21 59.18-4.26 0-8.53 0-12.78 0-.13-8.17-.01-16.32-.07-24.42z" fill="#9e9e9e"/><path d="m493.88 379.5q5.81-10.23 11.76-20.37c3.86 6.8 7.88 13.51 11.67 20.36-7.81.03-15.62.01-23.43.01z" fill="#9e9e9e"/><path d="m183.12 312.17c13.07-13.41 31.44-20.88 49.94-22.48 7.63-.42 15.28-.08 22.92-.19 6.71.13 13.45-.37 20.14.41-2.55.66-5.06 1.49-7.58 2.26-18.08-.2-36.53 6.17-49.84 18.58-4.75 4-7.38 9.89-12.41 13.55-11.93 9.44-19.47 23.64-22.46 38.42-2.19 11.87-5.08 23.61-7.59 35.42 0 2.05-2.09 2.68-3.61 3.43-10.54 4.59-20.34 11.59-26.77 21.26a17.23 17.23 0 0 1 -5 4.95 53.75 53.75 0 0 0 -19 22.87c-1.94 4.42-2.88 9.19-4.31 13.78q-22.14 69.87-44.2 139.74c-2.69 8.8-5.88 17.47-7.58 26.53-3.78 19-4.91 38.76-1.08 57.83 3.12 15.57 10.43 30.63 22.31 41.37 13 11.94 30.38 18 47.65 20.35 12.36 1.83 24.88 1.3 37.33 1.37h669.02c16.8.2 33.92-1.59 49.62-7.89 12.52-5 23.86-13.28 31.68-24.34 9.84-13.72 14.17-30.66 15.13-47.33a162.13 162.13 0 0 0 -6-52.71q-24.33-77-48.71-154.07c-1.5-4.54-2.38-9.28-4.2-13.71a52.73 52.73 0 0 0 -17-22.05 17.75 17.75 0 0 1 -4.9-5.17c-7.31-12-19.64-19.9-32.51-24.82-2.88-12.52-5.76-25.05-8.17-37.68a67.77 67.77 0 0 0 -15.11-30.73c-3.08-3.59-7.15-6.28-9.64-10.37-7.92-12.13-20.6-20.61-34.29-24.93-8-2.49-16.48-4.15-24.93-3.52-2.71-.77-5.38-1.69-8.11-2.4 7.35-.81 14.74-.25 22.11-.41 9.28.19 18.66-.63 27.85 1.05 16.74 2.82 33 10.51 44.51 23.16 11 11.86 17.14 27.52 19.5 43.37 3.17 16.7 6.92 33.28 10.17 49.93.46 1.6.39 4.13 2.62 4.25 13.84 3.9 27.35 10.15 37.86 20.16 9.65 8.89 15.77 21.08 18.31 33.88q24.28 82.71 48.8 165.3c2.23 7.78 4.83 15.47 6.47 23.41a208.9 208.9 0 0 1 4.56 43c-.17 19-3.22 38.45-12.22 55.39a75.48 75.48 0 0 1 -30.7 31.23c-16.94 9.3-36.55 12.41-55.67 12.59h-736a139.9 139.9 0 0 1 -35-4.37c-15.44-4-30.12-12-40.78-24.06-11.25-12.53-17.74-28.78-20.64-45.24-3.79-21.71-2.41-44 1.73-65.58 1.69-9.25 4.71-18.17 7.31-27.19q24.17-81.88 48.35-163.77c2.13-9.94 5.8-19.71 12.23-27.7 11.21-14.5 28.42-22.66 45.64-27.62 1.14-2.49 1.35-5.28 2-7.92 3.45-17.27 7.36-34.46 10.45-51.81 3-14.37 9.46-28.26 19.84-38.78m-134.57 374.69c-2.59 20.78-2.17 42.74 6.41 62.2 5.66 13.1 16.43 24.09 29.94 29 9.87 3.84 20.6 4.71 31.11 4.43h773.95c13.82-.08 28.12-3.56 39.08-12.33 10.59-8.39 17.12-20.9 20.37-33.83 4-16.16 4.13-33.13 1.81-49.56-2.95 20.26-9.42 40.77-23 56.54-10.26 12.13-25.32 20.56-41.26 21.8h-774c-8.6-.52-16.94-3.56-24.44-7.72-13.92-7.88-24-21.22-30.33-35.69-5.03-11.04-7.51-22.97-9.64-34.84z" fill="#002baf"/><path d="m218.7 310.75c13.3-12.41 31.76-18.75 49.84-18.58-17.61 6.19-32.66 20.4-37.48 38.74-3 13.08-6.1 26.12-9.25 39.17-17.7 4.75-36 14.6-43.4 32.34-14.58 43.6-29.78 87-44.48 130.58-5.57 19.72-7.2 41.22-1 61a61.58 61.58 0 0 0 30.07 36c17.71 9.48 38.29 11.28 58 10.93h565c17.7-.13 35.94-2.68 51.65-11.32a61.44 61.44 0 0 0 28.05-31.87c6.75-17.57 6.36-37.08 2.69-55.3-1.58-8.34-4.71-16.25-7.38-24.26q-17.19-50.26-34.38-100.53c-2.86-7.74-4.31-16.17-9.3-23-9-13.23-24.24-20.37-39.21-24.62-1.67-7.32-3.47-14.6-5.21-21.9-2.5-9.59-3.55-19.72-8.51-28.48-6.68-13-19-22.14-32.42-27.33 8.45-.63 16.89 1 24.93 3.52 13.69 4.32 26.37 12.8 34.29 24.93 2.49 4.09 6.56 6.78 9.64 10.37a67.77 67.77 0 0 1 15.16 30.72c2.41 12.63 5.29 25.16 8.17 37.68 12.87 4.92 25.2 12.85 32.51 24.82a17.75 17.75 0 0 0 4.9 5.17 52.73 52.73 0 0 1 17 22.05c1.82 4.43 2.7 9.17 4.2 13.71q24.38 77 48.71 154.07a162.13 162.13 0 0 1 6 52.71c-1 16.67-5.29 33.61-15.13 47.33-7.82 11.06-19.16 19.36-31.68 24.34-15.7 6.3-32.82 8.09-49.62 7.89h-669.06c-12.45-.07-25 .46-37.33-1.37-17.27-2.35-34.63-8.41-47.65-20.35-11.91-10.74-19.22-25.8-22.34-41.37-3.83-19.07-2.7-38.85 1.08-57.83 1.7-9.06 4.89-17.73 7.58-26.53q22.1-69.85 44.17-139.74c1.43-4.59 2.37-9.36 4.31-13.78a53.75 53.75 0 0 1 19-22.87 17.23 17.23 0 0 0 5-4.95c6.43-9.67 16.23-16.67 26.77-21.26 1.52-.75 3.58-1.38 3.61-3.43 2.51-11.81 5.4-23.55 7.59-35.42 3-14.78 10.53-29 22.46-38.42 5-3.66 7.66-9.59 12.41-13.55m664.6 357.53c-7.75 11-19.15 19.71-32.35 23-5.51 1.69-11.3 1-16.95 1.13h-677.96c-15.16-1.42-29-10.31-38-22.42-11.49-15.33-17-34.3-19.26-53.09a143.92 143.92 0 0 0 -1.2 28c1 17.2 5.08 35.37 17 48.45 9.88 11 25 15.71 39.48 15.61q337.49 0 675 0c13.07-.17 26.68 1.13 39.1-3.87 12.63-4.65 22.34-15.28 27.41-27.57 8-19.16 8.16-40.56 5.88-60.89-2.41 18.19-7.41 36.53-18.15 51.65z" fill="#2ab4eb"/><path d="m249.81 408.6c21.73-4.59 45.24-3.36 65.58 6 10.89 5.19 21.71 14 23.82 26.52.57 7.06.86 14.54-2.41 21.06a116.76 116.76 0 0 1 27.45.88c-2.89-5.21-3.53-11.19-3.18-17-.55-10.71 6.46-20.14 14.89-26 14.49-10.14 32.58-13.73 50-14 16.91 0 34.37 3.15 48.92 12.15 8.25 5.16 15.73 13 17.32 22.93.57 7.06.86 14.55-2.41 21.07a117.84 117.84 0 0 1 27.45.87c-1.6-3.46-3.06-7.09-3.08-11-.07-5.72-.54-11.72 2-17 4.89-11 15.69-18 26.53-22.4 18.44-7.16 39-8.2 58.3-4.63 13.71 2.77 27.69 8.15 37.22 18.78 4.65 5.24 7.68 12.11 7.31 19.2.26 5.52-.17 11.14-2.65 16.17a117.83 117.83 0 0 1 27.45.89c-1.45-3.14-2.86-6.39-3-9.89-.24-6.53-.68-13.47 2.52-19.43 5.87-11.47 17.77-18.31 29.53-22.43a109.35 109.35 0 0 1 62-1.57c12.82 3.66 25.95 10 33.3 21.66 4.59 6.94 4.35 15.64 3.6 23.59-2 10.64-10.53 18.59-19.54 23.77-18 10.08-39.37 12.52-59.59 10.19-7.66-10.89-19.68-18.19-32.32-21.87 11.1 4 22.24 10.22 28.41 20.66 3.42 5.45 3.86 12 3.56 18.28.25 6.18-2.34 12.07-6 16.94 19.61-2.07 40.28 0 57.94 9.25 9.65 5.17 18.85 13.44 20.9 24.69.63 7.55 1.08 15.78-3.08 22.51-6.59 11.16-18.66 17.68-30.6 21.68a106.21 106.21 0 0 1 -63.16.08c-11.9-3.93-23.91-10.37-30.62-21.36-4.49-7.11-4.1-15.84-3.17-23.84 3.36-14.43 17.13-23.16 30.14-28a61 61 0 0 0 -27.5 17 98.07 98.07 0 0 1 -28.64-1.13 66.15 66.15 0 0 0 -26.14-15.76c9.18 3.74 18.27 8.77 24.34 16.83a26.72 26.72 0 0 1 5.69 15.06c.06 5.65.5 11.58-2.07 16.81-5.16 11.21-16.3 18.21-27.39 22.62-19.92 7.59-42.23 8.3-62.82 3.12-13.24-3.59-26.78-9.9-34.71-21.56-5.24-7.48-5-17.17-3.71-25.79 3.75-14 17.14-22.51 30-27.2a59.82 59.82 0 0 0 -27.47 16.89 107.83 107.83 0 0 1 -25.64-.42c-1.44-.25-3.09-.29-4.1-1.5a65.12 65.12 0 0 0 -25.25-15c10.83 4.53 21.94 10.87 27.46 21.72 3.26 5.93 2.83 12.86 2.62 19.38-.74 9.26-7.11 17-14.35 22.27-13.16 9.46-29.46 13.49-45.46 14.4-18.48.85-37.73-2.29-53.69-12.07-8.5-5.31-16.38-13.41-17.68-23.76-.32-6.92-.81-14.34 2.75-20.58 5.69-10.64 16.66-17.24 27.68-21.27a59.8 59.8 0 0 0 -27.46 16.94 108.24 108.24 0 0 1 -28.6-1 66.49 66.49 0 0 0 -29.1-16.94c10.27 3.71 20.52 8.95 27.27 17.82a26.61 26.61 0 0 1 5.7 15.08c.11 5.86.47 12-2.32 17.42-5.4 11.11-16.61 18-27.76 22.31a105.44 105.44 0 0 1 -65.61 1.91c-12.42-3.88-25-10.39-32-21.81-4.32-6.72-4-15.06-3.34-22.7 2.14-12.26 12.61-20.93 23.26-26.1 19.54-9.23 42.13-10.64 63.21-6.86-3.46-4.32-6.33-9.39-6.82-15-.3-6.76-.71-14 2.7-20.09 5.33-10.46 16-16.47 26.26-21.21 8.66-2.77 16.8-8.23 21.13-16.42a19.8 19.8 0 0 0 -.91-20c-5.14-8-13.75-13.05-22.43-16.46-16.67-6.3-35.07-7.33-52.56-4.42-12.46 2.28-25.17 6.66-34.43 15.65-5.86 5.56-9.25 14.31-6.4 22.21 3.4 9.54 12.35 15.67 21.2 19.71 19.71 8.68 42.1 8.93 62.94 4.72-7 4.53-13.85 9.65-18.38 16.8-18.36 1-37.47-2-53.5-11.39-8.79-5.24-17-13.27-18.71-23.77-.6-7.87-.82-16.43 3.82-23.25 8.33-12.8 23.33-19.22 37.68-22.58m127.52 14.71c-6.56 5.07-11.81 13.17-10.36 21.77 1.48 9.18 9 15.91 16.71 20.3 15.2 8.44 33.1 10.88 50.27 9.86 6-.2 11.8-1.79 17.77-2.18-7.05 4.27-13.67 9.54-18.17 16.53a120.35 120.35 0 0 1 -20.64-.62c-7.62-10.9-19.64-18.12-32.21-21.88 11.5 4.2 23.16 10.82 29.05 22 3.38 6.1 3 13.26 2.69 20-.46 5.11-2.87 9.81-5.87 13.89a116.5 116.5 0 0 1 34.57 1.18c-3.46-4.33-6.32-9.4-6.83-15-.3-6.75-.71-14 2.72-20.07 5.27-10.44 15.91-16.33 26-21.18 4.34-1.64 8.84-3.16 12.42-6.24 6.93-5.15 12.58-13.56 11-22.55-1.65-9.31-9.4-16-17.27-20.38-15.87-8.56-34.48-10.75-52.25-9.32-14 1.36-28.39 5.16-39.71 13.93m191.37-13.8c-13.81 1.53-27.92 5.43-38.91 14.27-6.56 5.2-11.52 13.64-9.62 22.24 2 9.25 9.85 15.77 17.81 20.07 15.22 8 32.91 10.24 49.9 9.09 5.66-.25 11.16-1.78 16.82-2.09-7 4.26-13.63 9.51-18.1 16.5a120.35 120.35 0 0 1 -20.53-.64c-7.65-10.9-19.68-18.15-32.28-21.9 11.49 4.2 23.17 10.79 29.06 22 3.42 6.11 3 13.31 2.73 20.06-.45 5.1-2.89 9.77-5.85 13.85a117.39 117.39 0 0 1 34.55 1.18c-4.47-5.34-7.44-12.14-7-19.2-.44-6.61.73-13.45 4.64-18.92 5.72-8.71 15.14-13.72 24.25-18.13 8.5-2.59 16.37-7.9 20.92-15.66a19.74 19.74 0 0 0 .62-18.82c-4-7.87-11.63-13-19.4-16.72-15.45-7-32.88-8.75-49.64-7.17m153.58-.06c-14.23 1.53-28.88 5.48-40 14.84-6.27 5.18-10.86 13.36-9 21.69 2.09 9.77 10.62 16.45 19.08 20.78 16.75 8.23 36.11 10.07 54.47 7.82 13.47-1.87 27.27-6 37.61-15.25 6-5.26 10.08-13.56 8-21.62-2.39-9.25-10.39-15.61-18.39-19.79-15.85-8.07-34.18-10.07-51.72-8.53m-388.91 56c-13.28 1.79-26.82 5.85-37.2 14.65-6.26 5.23-10.72 13.53-8.8 21.84 2.12 9.18 10 15.63 17.92 19.88 16.07 8.35 34.78 10.41 52.62 8.77 13.91-1.52 28.15-5.44 39.2-14.39 6.42-5.16 11.3-13.41 9.57-21.89-2-9.84-10.59-16.61-19.09-21-16.67-8.23-35.93-10.08-54.22-7.9m153 0c-13.72 1.88-27.84 6.12-38.26 15.65-6 5.4-9.85 13.92-7.4 22 3.05 10.13 12.47 16.56 21.65 20.71 17.39 7.55 37.07 8.86 55.65 5.84 12.41-2.24 25-6.58 34.33-15.39 5.77-5.38 9.36-13.76 7-21.59-2.77-9.26-11.07-15.48-19.35-19.63-16.55-7.93-35.54-9.72-53.61-7.55m153 0c-14.13 2-28.82 6.37-39.2 16.64-5.92 5.67-9.08 14.73-5.88 22.59 3.81 9.69 13.19 15.68 22.37 19.65 17.31 7.11 36.71 8.29 55 5.16 12.59-2.38 25.49-6.9 34.62-16.26 5.47-5.46 8.4-13.84 5.81-21.36-3.13-9.14-11.51-15.16-19.86-19.22-16.41-7.63-35.1-9.35-52.91-7.2m-383.89 60.2c-14.11 1.67-28.64 5.76-39.54 15.27-6.2 5.35-10.5 13.88-8.19 22.14 2.67 9.65 11.33 16.13 19.95 20.31 17 8 36.52 9.62 55 7.07 12.86-2 26-6.14 35.87-14.9 6-5.22 10.12-13.42 8.18-21.48-2.2-9.18-10.11-15.59-18.07-19.83-16.27-8.37-35.18-10.36-53.19-8.58m153 0c-13.89 1.64-28.15 5.64-39 14.81-6.25 5.21-10.82 13.5-8.89 21.81 2.25 9.79 10.85 16.44 19.39 20.74 16.94 8.2 36.47 10 55 7.54 13.13-2 26.53-6.07 36.65-15 6-5.24 10.16-13.44 8.16-21.5-2.21-9.15-10.06-15.56-18-19.79-16.27-8.39-35.19-10.38-53.22-8.6m154.87-.18c-13.64 1.34-27.53 5-38.69 13.22-6.66 4.93-12.33 12.68-11.39 21.37.87 9.25 8.21 16.26 15.77 20.8 14.69 8.55 32.15 11.22 49 10.6 15.16-.78 30.79-4.25 43.31-13.22 7-5 13-13.21 11.79-22.27-1.34-9.59-9.2-16.57-17.2-21-16-8.68-34.7-10.89-52.59-9.44m153 0c-13.88 1.37-28.06 5.09-39.31 13.67-6.66 5.08-12.11 13.15-10.71 21.89 1.53 9.87 9.9 16.85 18.25 21.3 17.2 8.81 37.3 10.69 56.27 8.24 13.13-1.93 26.56-6.06 36.68-15 6-5.25 10.2-13.47 8.17-21.55-2.21-9.15-10.08-15.54-18-19.76-15.76-8.18-33.93-10.26-51.35-8.85z" fill="#e27a0a"/><g fill="#e5c507"><path d="m255.59 410.5c17.49-2.91 35.89-1.88 52.56 4.42 8.68 3.41 17.29 8.43 22.43 16.46a19.8 19.8 0 0 1 .91 20c-4.33 8.19-12.47 13.65-21.13 16.42-3.95 1.34-7.59 3.43-11.46 5-20.84 4.21-43.23 4-62.94-4.72-8.85-4-17.8-10.17-21.2-19.71-2.85-7.9.54-16.65 6.4-22.21 9.26-9 21.97-13.38 34.43-15.66z"/><path d="m377.33 423.31c11.32-8.77 25.67-12.57 39.71-13.93 17.77-1.43 36.38.76 52.25 9.32 7.87 4.38 15.62 11.07 17.27 20.38 1.61 9-4 17.4-11 22.55-3.58 3.08-8.08 4.6-12.42 6.24-3.91 1.52-7.7 3.33-11.45 5.19-6 .39-11.78 2-17.77 2.18-17.17 1-35.07-1.42-50.27-9.86-7.65-4.38-15.2-11.12-16.65-20.3-1.48-8.6 3.77-16.7 10.33-21.77z"/><path d="m568.7 409.51c16.76-1.58 34.19.15 49.64 7.17 7.77 3.67 15.42 8.85 19.4 16.72a19.74 19.74 0 0 1 -.62 18.82c-4.55 7.76-12.42 13.07-20.92 15.66-3.93 1.51-7.73 3.35-11.5 5.21-5.66.31-11.16 1.84-16.82 2.09-17 1.15-34.68-1.11-49.9-9.09-8-4.3-15.83-10.82-17.81-20.07-1.9-8.6 3.06-17 9.62-22.24 10.99-8.84 25.1-12.78 38.91-14.27z"/><path d="m722.28 409.45c17.54-1.54 35.87.46 51.72 8.53 8 4.2 16 10.56 18.35 19.73 2.09 8.06-2 16.36-8 21.62-10.34 9.21-24.14 13.38-37.61 15.25-18.36 2.25-37.72.41-54.47-7.82-8.46-4.33-17-11-19.08-20.78-1.82-8.33 2.77-16.51 9-21.69 11.21-9.36 25.86-13.29 40.09-14.84z"/><path d="m333.37 465.48c18.29-2.18 37.55-.33 54.22 7.9 8.5 4.35 17.06 11.12 19.09 21 1.73 8.48-3.15 16.73-9.57 21.89-11.05 8.95-25.29 12.87-39.2 14.39-17.84 1.64-36.55-.42-52.62-8.77-8-4.25-15.8-10.7-17.92-19.88-1.92-8.31 2.54-16.61 8.8-21.84 10.38-8.84 23.92-12.9 37.2-14.69z"/><path d="m486.35 465.49c18.07-2.17 37.06-.38 53.61 7.55 8.28 4.15 16.58 10.37 19.35 19.63 2.37 7.83-1.22 16.21-7 21.59-9.31 8.81-21.91 13.15-34.31 15.39-18.58 3-38.26 1.71-55.65-5.84-9.18-4.15-18.6-10.58-21.65-20.71-2.45-8 1.41-16.56 7.4-22 10.41-9.49 24.53-13.73 38.25-15.61z"/><path d="m639.34 465.49c17.81-2.15 36.5-.43 52.91 7.2 8.35 4.06 16.73 10.08 19.86 19.22 2.59 7.52-.34 15.9-5.81 21.36-9.13 9.36-22 13.88-34.62 16.26-18.34 3.13-37.74 2-55-5.16-9.18-4-18.56-10-22.37-19.65-3.2-7.86 0-16.92 5.88-22.59 10.33-10.27 25.02-14.67 39.15-16.64z"/><path d="m255.45 525.69c18-1.78 36.92.21 53.19 8.58 8 4.24 15.87 10.65 18.07 19.83 1.94 8.06-2.17 16.26-8.18 21.48-9.91 8.76-23 12.92-35.87 14.9-18.47 2.55-38 .93-55-7.07-8.62-4.18-17.28-10.66-19.95-20.31-2.31-8.26 2-16.79 8.19-22.14 10.91-9.51 25.44-13.6 39.55-15.27z"/><path d="m408.49 525.69c18-1.78 36.95.21 53.22 8.6 8 4.23 15.82 10.64 18 19.79 2 8.06-2.18 16.26-8.16 21.5-10.12 8.94-23.52 13.06-36.65 15-18.5 2.41-38 .66-55-7.54-8.54-4.3-17.14-10.95-19.39-20.74-1.93-8.31 2.64-16.6 8.89-21.81 10.94-9.16 25.2-13.16 39.09-14.8z"/><path d="m563.36 525.51c17.89-1.45 36.64.76 52.59 9.44 8 4.48 15.91 11.46 17.15 21.06 1.23 9.06-4.76 17.24-11.79 22.27-12.52 9-28.15 12.44-43.31 13.22-16.8.62-34.26-2-49-10.6-7.56-4.54-14.9-11.55-15.77-20.8-.94-8.69 4.73-16.44 11.39-21.37 11.21-8.25 25.1-11.88 38.74-13.22z"/><path d="m716.41 525.5c17.42-1.41 35.61.67 51.3 8.78 8 4.22 15.84 10.61 18 19.76 2 8.08-2.18 16.3-8.17 21.55-10.12 8.95-23.55 13.08-36.68 15-19 2.45-39.07.57-56.27-8.24-8.35-4.45-16.72-11.43-18.25-21.3-1.4-8.74 4.05-16.81 10.71-21.89 11.3-8.57 25.48-12.29 39.36-13.66z"/></g><path d="m48.59 686.86c2.13 11.87 4.61 23.8 9.67 34.84 6.34 14.47 16.41 27.81 30.33 35.69 7.5 4.16 15.84 7.2 24.44 7.72h773.97c16-1.24 31-9.67 41.35-21.78 13.55-15.77 20-36.28 23-56.54 2.32 16.43 2.21 33.4-1.81 49.56-3.25 12.93-9.78 25.44-20.37 33.83-11 8.77-25.26 12.25-39.08 12.33h-774.09c-10.51.28-21.24-.59-31.11-4.43-13.51-4.93-24.28-15.92-29.94-29-8.53-19.48-8.95-41.44-6.36-62.22z" fill="#2371e2"/><path d="m82.28 953.6a91.72 91.72 0 0 1 -11.07 2.11 113.06 113.06 0 0 1 -14.32.77q-18.91 0-28.15-7.66t-9.23-26.21v-47.28h-13.33v-22h13.33v-28.89h32.49v28.91h30.28v22h-30.28v35.9q0 5.32.09 9.29a19.11 19.11 0 0 0 1.44 7.13 10 10 0 0 0 4.44 5q3.19 1.85 9.3 1.85a27.28 27.28 0 0 0 6.6-1.08 27.54 27.54 0 0 0 5.7-2h2.69z" fill="#002baf"/><path d="m147.26 918.73 23.08-65.38h33.35l-56.2 138.25h-35.19l16.08-37.88-39.38-100.37h34.05z" fill="#002baf"/><path d="m327.26 902.53a64.77 64.77 0 0 1 -3.83 22.78 50.24 50.24 0 0 1 -10 16.94 43.79 43.79 0 0 1 -14.66 10.62 43.09 43.09 0 0 1 -17.54 3.61 50.56 50.56 0 0 1 -14.66-1.85 70.81 70.81 0 0 1 -12.33-5.18v42.15h-32.54v-138.25h32.51v10.54a78.76 78.76 0 0 1 15.25-9.63 41.3 41.3 0 0 1 18-3.7q18.88 0 29.37 13.87t10.43 38.1zm-33.42.68q0-14.75-5-21.41t-15.9-6.65a34.42 34.42 0 0 0 -9.44 1.39 39.51 39.51 0 0 0 -9.26 4v50.8a26 26 0 0 0 6.92 1.62q3.69.36 7.28.36 12.85 0 19.14-7.51t6.26-22.6z" fill="#002baf"/><path d="m450.28 909.91h-74.21q.72 11.9 9.05 18.2t24.54 6.3a55.24 55.24 0 0 0 19.91-3.69 62.2 62.2 0 0 0 15.22-7.93h3.6v26a120.78 120.78 0 0 1 -20.71 6.4 108.21 108.21 0 0 1 -21.53 2q-30.43 0-46.65-13.69t-16.21-39q0-25 15.35-39.67t42.11-14.64q24.67 0 37.1 12.48t12.43 35.89zm-32.24-19q-.27-10.17-5-15.31t-14.86-5.13q-9.37 0-15.41 4.86t-6.77 15.58z" fill="#002baf"/><path d="m546.47 884.25h-2.88a29 29 0 0 0 -6.65-1.08c-3.05-.24-5.6-.37-7.64-.37a73.68 73.68 0 0 0 -12.22.91 69.25 69.25 0 0 0 -11.41 3.06v67.73h-32.51v-101.15h32.51v14.87q10.69-9.22 18.6-12.22a41.19 41.19 0 0 1 14.56-3c1.14 0 2.43 0 3.87.09s2.69.15 3.77.27z" fill="#002baf"/><path d="m626.08 943.78q-2.61 2-6.48 4.77a47.19 47.19 0 0 1 -7.29 4.41 45.68 45.68 0 0 1 -9.91 3.2 57.05 57.05 0 0 1 -11.26 1q-14.42 0-24.14-8.92t-9.72-22.78q0-11.09 5-18.11a33.28 33.28 0 0 1 14-11.08q9-4 22.34-5.76t27.64-2.51v-.54q0-8.38-6.84-11.57t-20.17-3.2a57.66 57.66 0 0 0 -17.12 2.83q-9.09 2.85-13 4.37h-3v-24.4q5.14-1.35 16.71-3.2a147 147 0 0 1 23.16-1.82q27.64 0 39.94 8.51t12.3 26.71v68.81h-32.16zm0-15.74v-21.04q-6.57.54-14.23 1.48a68.6 68.6 0 0 0 -11.61 2.2 16 16 0 0 0 -7.43 4.45 11.18 11.18 0 0 0 -2.57 7.67 19.94 19.94 0 0 0 .54 5.12 7.69 7.69 0 0 0 2.7 3.77 13.08 13.08 0 0 0 5 2.65 34.44 34.44 0 0 0 9 .85 26.82 26.82 0 0 0 9.86-2 30.66 30.66 0 0 0 8.74-5.19z" fill="#002baf"/><path d="m740.74 957.2a87.3 87.3 0 0 1 -24.19-3.15 53.53 53.53 0 0 1 -19-9.73 44.08 44.08 0 0 1 -12.42-16.57q-4.43-10-4.42-23.42 0-14.15 4.73-24.41a46.07 46.07 0 0 1 13.19-17 54 54 0 0 1 18.92-9.37 82.88 82.88 0 0 1 22.24-3 76.5 76.5 0 0 1 19.1 2.25 91 91 0 0 1 16.3 5.86v27.65h-4.59q-1.89-1.62-4.54-3.78a40.24 40.24 0 0 0 -6.52-4.24 43.57 43.57 0 0 0 -8.14-3.29 36.27 36.27 0 0 0 -10.25-1.3q-13 0-19.93 8.24t-7 22.38q0 14.59 7.15 22.16t20.27 7.56a40.26 40.26 0 0 0 11-1.39 36 36 0 0 0 8.14-3.29 38.79 38.79 0 0 0 5.4-3.78q2.32-2 4.31-3.88h4.59v27.65a88.63 88.63 0 0 1 -16 5.72 74.76 74.76 0 0 1 -18.34 2.13z" fill="#002baf"/><path d="m896.18 909.91h-74.18q.72 11.9 9 18.2t24.55 6.3a55.23 55.23 0 0 0 19.9-3.69 62 62 0 0 0 15.22-7.93h3.6v26a120.51 120.51 0 0 1 -20.71 6.4 108.21 108.21 0 0 1 -21.53 2q-30.43 0-46.65-13.69t-16.21-39q0-25 15.35-39.67t42.11-14.64q24.68 0 37.11 12.48t12.42 35.89zm-32.24-19q-.27-10.17-5-15.31t-14.94-5.13q-9.37 0-15.4 4.86t-6.76 15.58z" fill="#002baf"/><path d="m992.37 884.25h-2.87a29.12 29.12 0 0 0 -6.65-1.08c-3.06-.24-5.61-.37-7.64-.37a73.51 73.51 0 0 0 -12.22.91 69.35 69.35 0 0 0 -11.42 3.06v67.73h-32.51v-101.15h32.51v14.87q10.7-9.19 18.6-12.21a41.23 41.23 0 0 1 14.56-3c1.14 0 2.43 0 3.87.09s2.69.15 3.77.27z" fill="#002baf"/></g></svg>